<svg xmlns="http://www.w3.org/2000/svg" width="536.487" height="557.056" viewBox="0 0 536.487 557.056">
  <g id="Group_3950" data-name="Group 3950" transform="translate(-244 -262.688)">
    <g id="Background_Complete" data-name="Background Complete" transform="translate(293.272 262.688)">
      <g id="Group_3896" data-name="Group 3896">
        <g id="Group_3892" data-name="Group 3892" transform="translate(0 13.828)">
          <rect id="Rectangle_1878" data-name="Rectangle 1878" width="215.375" height="270.624" fill="#890c22"/>
          <rect id="Rectangle_1879" data-name="Rectangle 1879" width="200.997" height="255.155" transform="translate(7.885 7.744)" fill="#c2002f"/>
          <path id="Path_3778" data-name="Path 3778" d="M85.7,218.293h40.438l5.2,23.795h17.544l14.945-67.667H213.86V128.285h36.388v77.09H286.7v80.252H85.7Z" transform="translate(-77.815 -22.728)" fill="#b30025"/>
          <rect id="Rectangle_1880" data-name="Rectangle 1880" width="6.498" height="253.05" transform="translate(105.088 7.744)" fill="#890c22"/>
          <rect id="Rectangle_1881" data-name="Rectangle 1881" width="200.997" height="6.651" transform="translate(7.885 131.353)" fill="#890c22"/>
        </g>
        <g id="Group_3895" data-name="Group 3895" transform="translate(371.357 55.415)">
          <path id="Path_3779" data-name="Path 3779" d="M392.041,103.478l12.928,33.072-8.036-.037-6.441-20.324Z" transform="translate(-343.452 -72.92)" fill="#890c22"/>
          <g id="Group_3894" data-name="Group 3894">
            <g id="Group_3893" data-name="Group 3893">
              <path id="Path_3780" data-name="Path 3780" d="M360.01,80.79l-4.444,63.368,45.878.958,5.162-64.326Z" transform="translate(-355.566 -80.79)" fill="#b30025"/>
              <path id="Path_3781" data-name="Path 3781" d="M363.226,84.659l-3.7,52.745,34.106,1.6L398.4,84.346Z" transform="translate(-354.192 -79.556)" fill="#e11d3f"/>
            </g>
            <path id="Path_3782" data-name="Path 3782" d="M368.543,90.116l-2.767,37.076h18.814l3.319-37.076Z" transform="translate(-352.025 -77.555)" fill="#890c22"/>
          </g>
        </g>
        <path id="Path_3783" data-name="Path 3783" d="M308.284,141.626v-52.1h38.155v52.062Z" transform="translate(-0.609 -22.346)" fill="#b30025"/>
        <path id="Path_3784" data-name="Path 3784" d="M327.561,106.824s9.2-67.272,6.625-67.177-9.054,61.332-9.054,61.332-.271-50.719-2.7-50.448,0,53.686,0,53.686-4.147-43.35-6.391-42.313.963,44.921.963,44.921h10.554" transform="translate(1.806 -39.646)" fill="#890c22"/>
        <path id="Path_3785" data-name="Path 3785" d="M319.24,103.216s3.189-33.53,4.241-31.236,0,19.961,0,19.961,8.834-43.329,11.148-41.856-9.044,47.028-9.044,47.028S334.209,71.1,336.1,73.845s-7.152,27.138-7.152,27.138,9.256-17.247,9.887-14.933-4.419,17.166-4.419,17.166Z" transform="translate(3.191 -36.038)" fill="#b30025"/>
        <path id="Path_3786" data-name="Path 3786" d="M319.863,99.676s-20.4-40.05-17.877-38.809S317.55,87.978,317.55,87.978s-8.631-24.971-6.734-25.736,11.361,28.05,11.361,28.05l2.124,9.384Z" transform="translate(-2.869 -32.295)" fill="#b30025"/>
        <path id="Path_3787" data-name="Path 3787" d="M325.911,89.632l.964,52.1H308.733l-.35-52.276Z" transform="translate(-0.575 -22.368)" fill="#890c22"/>
        <path id="Path_3788" data-name="Path 3788" d="M308.444,94.22l17.571.293,20.541-.293.645-4.979H307.945Z" transform="translate(-0.727 -22.443)" fill="#b30025"/>
        <rect id="Rectangle_1882" data-name="Rectangle 1882" width="190.793" height="8.377" transform="translate(274.841 118.43)" fill="#890c22"/>
      </g>
    </g>
    <g id="Device" transform="translate(461.368 407.886)">
      <g id="Group_3922" data-name="Group 3922" transform="translate(0 0)">
        <path id="Path_3789" data-name="Path 3789" d="M310.549,355.075c-1.616-1.782,2.193-12.247,20.282-12.99s25.328,5.847,25.361,12.99C356.209,358.246,310.549,355.075,310.549,355.075Z" transform="translate(-168.036 -79.959)" fill="#a20122"/>
        <g id="Group_3909" data-name="Group 3909" transform="translate(113.49)">
          <g id="Group_3897" data-name="Group 3897">
            <path id="Path_3790" data-name="Path 3790" d="M309.007,148.776,288.914,273.06H472.435l22.108-125.609Z" transform="translate(-288.914 -147.451)" fill="#fbcad4"/>
            <path id="Path_3791" data-name="Path 3791" d="M302.475,160.086c.07-.438,185.264-.7,185.264-.7l2.1-11.933L304.3,148.776l-1.828,11.31" transform="translate(-284.21 -147.45)" fill="#890c22"/>
            <path id="Path_3792" data-name="Path 3792" d="M310.461,153.028a1.7,1.7,0,1,1-1.7-1.7A1.7,1.7,0,0,1,310.461,153.028Z" transform="translate(-282.62 -146.106)" fill="#890c22"/>
            <path id="Path_3793" data-name="Path 3793" d="M316.666,153.028a1.7,1.7,0,1,1-1.7-1.7A1.7,1.7,0,0,1,316.666,153.028Z" transform="translate(-280.468 -146.106)" fill="#890c22"/>
            <path id="Path_3794" data-name="Path 3794" d="M322.871,153.028a1.7,1.7,0,1,1-1.7-1.7A1.7,1.7,0,0,1,322.871,153.028Z" transform="translate(-278.315 -146.106)" fill="#890c22"/>
          </g>
          <path id="Path_3795" data-name="Path 3795" d="M346.988,206.95l-22.975,26.5c-9.007-6.376-14.278-16.16-14.278-26.5,0-18.466,16.817-33.661,37.253-33.661s37.254,15.2,37.254,33.661Z" transform="translate(-281.692 -138.488)" fill="#e11d3f"/>
          <g id="Group_3898" data-name="Group 3898" transform="translate(45.093 72.625)">
            <path id="Path_3796" data-name="Path 3796" d="M345.543,201.427a4.272,4.272,0,0,1-.4.52l-1.191,1.436-4.552,5.373L323.058,227.81l-.054-.436a37.293,37.293,0,0,0,17.1,6.363,39.489,39.489,0,0,0,20.347-3.07,36.851,36.851,0,0,0,15.315-12.333,34.831,34.831,0,0,0,4.158-8.15,32.838,32.838,0,0,0,1.595-8.347l.3.313-26.258-.439-7.381-.168-1.954-.065a4.584,4.584,0,0,1-.684-.05,3.442,3.442,0,0,1,.645-.036l1.923-.019,7.346,0,26.37.172.318,0-.02.311a33.325,33.325,0,0,1-1.585,8.528,35.308,35.308,0,0,1-4.217,8.332,37.364,37.364,0,0,1-15.586,12.588,39.987,39.987,0,0,1-20.707,3.1,37.681,37.681,0,0,1-17.366-6.547l-.269-.19.216-.246,16.618-18.961,4.651-5.241c.514-.567.921-1.017,1.231-1.356A3.215,3.215,0,0,1,345.543,201.427Z" transform="translate(-322.394 -201.372)" fill="#890c22"/>
          </g>
          <circle id="Ellipse_156" data-name="Ellipse 156" cx="2.089" cy="2.089" r="2.089" transform="translate(79.044 46.376)" fill="#890c22"/>
          <g id="Group_3899" data-name="Group 3899" transform="translate(81.132 32.83)">
            <path id="Path_3797" data-name="Path 3797" d="M392.7,172.178a10.539,10.539,0,0,1-1.96.136l-5.346.112c-4.513.063-10.748.1-17.633.1l-3.327,0,.245-.1c-4.329,4.313-8.18,8.1-10.963,10.8l-3.3,3.154a8.289,8.289,0,0,1-1.262,1.084,8.122,8.122,0,0,1,1.084-1.262l3.153-3.3c2.7-2.784,6.488-6.636,10.8-10.965l.1-.1h.144l3.327,0c6.885,0,13.12.039,17.633.1l5.346.11A10.445,10.445,0,0,1,392.7,172.178Z" transform="translate(-349.152 -171.826)" fill="#890c22"/>
          </g>
          <g id="Group_3900" data-name="Group 3900" transform="translate(119.434 21.871)">
            <path id="Path_3798" data-name="Path 3798" d="M430.141,201.238a6.291,6.291,0,0,1,.1-.706c.082-.49.194-1.152.335-1.995.311-1.778.757-4.315,1.323-7.538,1.172-6.508,2.841-15.776,4.864-27.007l.28.338-52.164.065c-.079.062.648-.541.339-.28v.009l0,.019-.007.039-.015.078-.03.156-.058.312-.116.624-.23,1.245-.459,2.476q-.459,2.465-.909,4.895-.905,4.853-1.775,9.532c-1.164,6.228-2.278,12.192-3.325,17.8l-.312-.376,37.567.151c4.571.038,8.2.066,10.73.086l2.863.042.745.02a1.4,1.4,0,0,1,.263.019.819.819,0,0,1-.23.02l-.712.02q-1.016.016-2.807.04c-2.516.022-6.121.05-10.667.086l-37.751.152h-.383l.07-.378c1.032-5.61,2.131-11.575,3.277-17.807q.865-4.673,1.763-9.534.449-2.426.906-4.895.228-1.232.458-2.476l.23-1.245.116-.624.058-.312.03-.156.015-.078.007-.039,0-.019v-.009c-.308.252.42-.357.35-.292l52.164.065h.345l-.065.338c-2.151,11.273-3.926,20.577-5.173,27.111-.624,3.188-1.115,5.7-1.459,7.455-.166.819-.3,1.46-.393,1.937A4.641,4.641,0,0,1,430.141,201.238Z" transform="translate(-377.59 -163.689)" fill="#890c22"/>
          </g>
          <g id="Group_3902" data-name="Group 3902" transform="translate(82.313 88.367)">
            <circle id="Ellipse_157" data-name="Ellipse 157" cx="2.089" cy="2.089" r="2.089" fill="#890c22"/>
            <g id="Group_3901" data-name="Group 3901" transform="translate(2.09 1.739)">
              <path id="Path_3799" data-name="Path 3799" d="M389.475,214.7c0,.194-8.484.352-18.948.352s-18.948-.158-18.948-.352,8.481-.35,18.948-.35S389.475,214.509,389.475,214.7Z" transform="translate(-351.58 -214.351)" fill="#890c22"/>
            </g>
          </g>
          <g id="Group_3903" data-name="Group 3903" transform="translate(117.767 78.993)">
            <path id="Path_3800" data-name="Path 3800" d="M430.57,233.832a3.677,3.677,0,0,1,.1-.515c.084-.365.194-.843.333-1.447.312-1.3.753-3.142,1.316-5.487,1.17-4.765,2.842-11.571,4.9-19.939l.256.329-53.791.086c-.307.237.409-.322.335-.261v.007l0,.015-.007.028-.015.057-.028.113-.057.225-.114.453-.228.9-.453,1.794q-.452,1.788-.9,3.556-.893,3.531-1.762,6.962c-1.16,4.57-2.28,8.988-3.351,13.206l-.319-.409c15.659.059,29.059.112,38.6.149l11.152.09,2.99.044.779.023a1.5,1.5,0,0,1,.276.022.876.876,0,0,1-.241.023l-.746.022-2.932.044-11.09.092-38.786.148-.423,0,.1-.412c1.06-4.22,2.171-8.64,3.32-13.213q.863-3.428,1.754-6.965.446-1.768.9-3.556l.453-1.794.228-.9.115-.451.057-.226.028-.113.015-.057.007-.028,0-.013v-.007c-.074.054.646-.505.345-.268l53.791.086h.341l-.085.327c-2.178,8.4-3.949,15.226-5.19,20.008-.613,2.31-1.1,4.123-1.434,5.406l-.384,1.391A2.5,2.5,0,0,1,430.57,233.832Z" transform="translate(-376.352 -206.1)" fill="#890c22"/>
          </g>
          <g id="Group_3904" data-name="Group 3904" transform="translate(132.06 33.311)">
            <path id="Path_3801" data-name="Path 3801" d="M422.655,172.533c0,.194-7.991.352-17.845.352s-17.846-.158-17.846-.352,7.988-.35,17.846-.35S422.655,172.341,422.655,172.533Z" transform="translate(-386.964 -172.183)" fill="#890c22"/>
          </g>
          <g id="Group_3905" data-name="Group 3905" transform="translate(131.434 39.155)">
            <path id="Path_3802" data-name="Path 3802" d="M422.4,176.872c0,.194-8.037.352-17.95.352s-17.95-.158-17.95-.352,8.035-.35,17.95-.35S422.4,176.68,422.4,176.872Z" transform="translate(-386.499 -176.522)" fill="#890c22"/>
          </g>
          <g id="Group_3906" data-name="Group 3906" transform="translate(131.642 44.79)">
            <path id="Path_3803" data-name="Path 3803" d="M421.3,181.056c0,.194-7.757.352-17.323.352s-17.323-.158-17.323-.352,7.755-.35,17.323-.35S421.3,180.864,421.3,181.056Z" transform="translate(-386.654 -180.706)" fill="#890c22"/>
          </g>
          <g id="Group_3907" data-name="Group 3907" transform="translate(132.895 89.455)">
            <path id="Path_3804" data-name="Path 3804" d="M421.6,214.22c0,.194-7.616.35-17.009.35s-17.011-.156-17.011-.35,7.614-.352,17.011-.352S421.6,214.026,421.6,214.22Z" transform="translate(-387.584 -213.868)" fill="#890c22"/>
          </g>
          <g id="Group_3908" data-name="Group 3908" transform="translate(135.816 95.925)">
            <path id="Path_3805" data-name="Path 3805" d="M418.764,219.024c0,.194-6.495.35-14.5.35s-14.507-.156-14.507-.35,6.493-.352,14.507-.352S418.764,218.83,418.764,219.024Z" transform="translate(-389.753 -218.672)" fill="#890c22"/>
          </g>
        </g>
        <g id="Group_3921" data-name="Group 3921" transform="translate(0 94.002)">
          <path id="Path_3806" data-name="Path 3806" d="M253.156,319.4c-.656,3.79-18.626,43.554-7.018,43.554h58.281s-6.02-5.668,12.205-43.554Z" transform="translate(-191.613 -181.81)" fill="#a20122"/>
          <path id="Path_3807" data-name="Path 3807" d="M228.474,222.129l-23.823,139.24H405.611l24.652-144.125Z" transform="translate(-204.652 -217.244)" fill="#a20122"/>
          <path id="Path_3808" data-name="Path 3808" d="M232.589,226.253,212.5,350.537H396.018l22.108-125.609Z" transform="translate(-201.93 -214.578)" fill="#fbcad4"/>
          <path id="Path_3809" data-name="Path 3809" d="M430.263,217.244l3.8,2.551L408.474,365.156H209.949l-5.3-3.787H405.611Z" transform="translate(-204.652 -217.244)" fill="#890c22"/>
          <path id="Path_3810" data-name="Path 3810" d="M226.057,237.563c.071-.438,185.265-.7,185.265-.7l2.1-11.935-185.536,1.325-1.829,11.31" transform="translate(-197.227 -214.578)" fill="#bf0828"/>
          <g id="Group_3910" data-name="Group 3910" transform="translate(165.164 52.026)">
            <path id="Path_3811" data-name="Path 3811" d="M327.283,328.786a2,2,0,0,1,.039-.342c.043-.269.1-.614.166-1.047.164-.974.393-2.34.686-4.084.622-3.622,1.514-8.81,2.624-15.261,2.291-13.071,5.479-31.253,9.1-51.891l.05-.286h.291l14.345-.005h.529l-.075.413c-5.607,30.43-10.531,57.158-13.365,72.535l-.028.158h-.159l-10.549-.11-2.741-.044-.691-.019a.985.985,0,0,1-.22-.016,1.668,1.668,0,0,1,.259-.017l.727-.018,2.789-.046,10.425-.11-.187.156c2.766-15.389,7.575-42.138,13.048-72.592l.345.414h-.108l-14.345,0,.341-.286c-3.727,20.51-7.01,38.578-9.37,51.569-1.2,6.474-2.162,11.68-2.835,15.315-.334,1.773-.6,3.161-.784,4.15-.089.45-.16.807-.215,1.086A3.354,3.354,0,0,1,327.283,328.786Z" transform="translate(-327.28 -255.871)" fill="#890c22"/>
          </g>
          <g id="Group_3911" data-name="Group 3911" transform="translate(141.84 72.804)">
            <path id="Path_3812" data-name="Path 3812" d="M309.966,323.435a8.584,8.584,0,0,1,.148-.972q.19-1.063.517-2.884c.479-2.591,1.16-6.264,2.005-10.831,1.77-9.338,4.232-22.32,7.047-37.164l.053-.277h.284l14.348-.008h.535l-.085.419c-4.259,21.108-8.042,39.867-10.441,51.76l-.035.174h-.175l-10.539-.124-2.75-.051a7.9,7.9,0,0,1-.912-.039c.016-.013.357-.026,1-.04l2.8-.051,10.4-.123-.21.172c2.337-11.9,6.025-30.684,10.173-51.814l.343.42h-.105l-14.348-.008.335-.277c-2.924,14.715-5.48,27.585-7.32,36.841-.932,4.59-1.682,8.279-2.21,10.884q-.39,1.863-.616,2.947c-.067.308-.124.562-.17.773A1.7,1.7,0,0,1,309.966,323.435Z" transform="translate(-309.963 -271.298)" fill="#890c22"/>
          </g>
          <g id="Group_3912" data-name="Group 3912" transform="translate(118.517 35.092)">
            <path id="Path_3813" data-name="Path 3813" d="M292.648,333.147a3.1,3.1,0,0,1,.057-.428l.211-1.3c.2-1.192.494-2.889.866-5.063.78-4.467,1.9-10.891,3.293-18.876L308.4,243.586l.051-.286h.291l14.345,0h.529l-.075.413c-7.033,38.5-13.236,72.056-16.523,89.467l-.027.144h-.144l-10.6-.1-2.707-.04c-.6-.011-.894-.031-.894-.031s.338-.02.963-.032l2.75-.04,10.488-.1-.171.141c3.08-17.449,9.143-51.033,16.176-89.53l.345.413h-.109l-14.345,0,.342-.286c-4.6,25.223-8.67,47.525-11.6,63.565-1.484,8.008-2.676,14.449-3.507,18.93-.415,2.2-.739,3.923-.967,5.13-.11.564-.2,1.008-.263,1.342A4.361,4.361,0,0,1,292.648,333.147Z" transform="translate(-292.647 -243.298)" fill="#890c22"/>
          </g>
          <g id="Group_3913" data-name="Group 3913" transform="translate(95.193 87.676)">
            <path id="Path_3814" data-name="Path 3814" d="M275.333,319.605a3.983,3.983,0,0,1,.083-.673c.083-.52.193-1.189.327-2.023.315-1.857.753-4.442,1.3-7.656,1.17-6.666,2.795-15.924,4.674-26.622l.048-.276h.283l14.348-.013h.531l-.081.416c-2.789,14.543-5.3,27.644-7.075,36.893l-.039.2-.2,0-10.495-.136-2.78-.058a6.818,6.818,0,0,1-.925-.046c.018-.015.37-.03,1.025-.047l2.839-.058,10.336-.136-.236.2c1.72-9.26,4.155-22.375,6.86-36.935l.343.416H296.4l-14.348-.013.331-.277c-1.992,10.576-3.715,19.725-4.955,26.314-.628,3.235-1.133,5.839-1.5,7.708-.172.861-.312,1.55-.42,2.085A6.887,6.887,0,0,1,275.333,319.605Z" transform="translate(-275.329 -282.34)" fill="#890c22"/>
          </g>
          <g id="Group_3914" data-name="Group 3914" transform="translate(71.871 63.762)">
            <path id="Path_3815" data-name="Path 3815" d="M258.016,325.764a1.321,1.321,0,0,1,.027-.283c.034-.23.075-.516.128-.87q.194-1.236.537-3.406c.494-3.04,1.2-7.371,2.077-12.76,1.826-10.961,4.368-26.2,7.262-43.567l.047-.286h.292l14.345-.007h.527l-.073.411-10.77,60.8-.03.17h-.171l-10.535-.117-2.75-.048a8.285,8.285,0,0,1-.914-.038,1.6,1.6,0,0,1,.263-.019l.733-.02,2.8-.047,10.4-.117-.2.168c2.331-13.539,6.154-35.739,10.479-60.853l.346.411h-.109l-14.345-.007.339-.287c-3,17.236-5.642,32.37-7.54,43.252-.964,5.41-1.739,9.761-2.283,12.814q-.406,2.21-.636,3.472l-.176.909A2.285,2.285,0,0,1,258.016,325.764Z" transform="translate(-258.013 -264.585)" fill="#890c22"/>
          </g>
          <g id="Group_3915" data-name="Group 3915" transform="translate(48.548 42.683)">
            <path id="Path_3816" data-name="Path 3816" d="M240.7,331.192a2.611,2.611,0,0,1,.047-.389c.048-.3.11-.691.189-1.187.182-1.094.44-2.643.772-4.624.7-4.089,1.7-9.957,2.943-17.255,2.563-14.754,6.127-35.273,10.162-58.514l.05-.287h.292l14.345,0h.528l-.074.412c-6.267,34.9-11.817,65.425-14.875,81.877l-.028.151H254.9l-10.582-.105-2.719-.043-.682-.016a1.12,1.12,0,0,1-.218-.016,1.733,1.733,0,0,1,.255-.016l.717-.017,2.765-.042,10.465-.105-.178.148c2.857-16.488,8.272-47.034,14.541-81.938l.345.412H269.5l-14.345,0,.342-.286c-4.144,23.112-7.8,43.517-10.433,58.19-1.335,7.32-2.408,13.207-3.156,17.309-.374,2.011-.667,3.581-.873,4.691-.1.512-.178.917-.237,1.227A3.654,3.654,0,0,1,240.7,331.192Z" transform="translate(-240.696 -248.934)" fill="#890c22"/>
          </g>
          <path id="Path_3817" data-name="Path 3817" d="M234.043,230.506a1.7,1.7,0,1,1-1.7-1.7A1.7,1.7,0,0,1,234.043,230.506Z" transform="translate(-195.636 -213.233)" fill="#890c22"/>
          <circle id="Ellipse_158" data-name="Ellipse 158" cx="1.7" cy="1.7" r="1.7" transform="translate(43.364 15.572)" fill="#890c22"/>
          <path id="Path_3818" data-name="Path 3818" d="M246.454,230.506a1.7,1.7,0,1,1-1.7-1.7A1.7,1.7,0,0,1,246.454,230.506Z" transform="translate(-191.331 -213.233)" fill="#890c22"/>
          <g id="Group_3916" data-name="Group 3916" transform="translate(25.224 69.78)">
            <path id="Path_3819" data-name="Path 3819" d="M223.383,324.214a9.245,9.245,0,0,1,.143-1.033q.184-1.121.5-3.059c.466-2.742,1.127-6.636,1.95-11.478,1.721-9.881,4.115-23.619,6.846-39.3l.048-.283h.29l14.345-.008h.531l-.078.415c-4.166,22.437-7.86,42.341-10.17,54.784l-.032.175-.175,0-10.539-.121-2.749-.05a8.3,8.3,0,0,1-.912-.039,1.427,1.427,0,0,1,.263-.019l.734-.021,2.8-.05c2.466-.028,5.98-.069,10.4-.121l-.207.172c2.248-12.453,5.843-32.375,9.9-54.834l.345.414h-.108l-14.345-.007.337-.283c-2.842,15.555-5.331,29.181-7.122,38.982-.909,4.865-1.64,8.776-2.155,11.532q-.38,1.98-.6,3.123l-.167.819A1.888,1.888,0,0,1,223.383,324.214Z" transform="translate(-223.38 -269.053)" fill="#890c22"/>
          </g>
          <g id="Group_3920" data-name="Group 3920" transform="translate(104.288 44.319)">
            <g id="Group_3917" data-name="Group 3917" transform="translate(1.493)">
              <path id="Path_3820" data-name="Path 3820" d="M360.068,275.961H283.19l4.386-25.813H365Z" transform="translate(-283.19 -250.149)" fill="#e11d3f"/>
            </g>
            <path id="Path_3821" data-name="Path 3821" d="M283.574,269.406l-1.492,9s10.092-9.361,9.936-9.361h-8.383" transform="translate(-282.082 -243.593)" fill="#e11d3f"/>
            <g id="Group_3918" data-name="Group 3918" transform="translate(14.506 8.623)">
              <path id="Path_3822" data-name="Path 3822" d="M350.047,256.9c0,.194-12.8.352-28.6.352s-28.6-.158-28.6-.352,12.8-.35,28.6-.35S350.047,256.707,350.047,256.9Z" transform="translate(-292.852 -256.551)" fill="#890c22"/>
            </g>
            <g id="Group_3919" data-name="Group 3919" transform="translate(13.751 14.852)">
              <path id="Path_3823" data-name="Path 3823" d="M349.487,261.526c0,.194-12.8.35-28.6.35s-28.6-.156-28.6-.35,12.8-.35,28.6-.35S349.487,261.332,349.487,261.526Z" transform="translate(-292.292 -261.176)" fill="#890c22"/>
            </g>
          </g>
        </g>
      </g>
    </g>
    <g id="Desk" transform="translate(244 683.027)">
      <g id="Group_3933" data-name="Group 3933">
        <g id="Group_3932" data-name="Group 3932" transform="translate(299.317 8.914)">
          <rect id="Rectangle_1883" data-name="Rectangle 1883" width="219.023" height="127.802" fill="#890c22"/>
          <rect id="Rectangle_1884" data-name="Rectangle 1884" width="99.777" height="127.802" fill="#a20122"/>
          <g id="Group_3925" data-name="Group 3925" transform="translate(8.991 7.479)">
            <g id="Group_3923" data-name="Group 3923">
              <path id="Path_3824" data-name="Path 3824" d="M352.794,399.837s-.017-.229-.027-.651c-.005-.451-.015-1.068-.027-1.86-.015-1.657-.035-4.039-.063-7.093-.031-6.15-.078-14.989-.135-25.9l.252.252-80.261.1c-.316.312.42-.428.346-.348v4.645q0,2.315,0,4.6,0,4.578,0,9.036c0,5.94-.008,11.7-.012,17.213l-.334-.333,57.527.158,16.688.093,4.477.042,1.165.02a3.431,3.431,0,0,1,.409.02,2.2,2.2,0,0,1-.368.022l-1.126.02-4.408.042-16.612.092c-14.29.04-34.385.094-57.752.159H272.2v-.335c0-5.514-.009-11.273-.013-17.213q0-4.455,0-9.036v-9.25c-.078.073.667-.668.356-.354l80.261.1h.253v.253c-.057,10.974-.1,19.866-.136,26.052-.027,3.028-.047,5.393-.062,7.036-.012.772-.022,1.374-.028,1.814A4.964,4.964,0,0,1,352.794,399.837Z" transform="translate(-272.172 -363.905)" fill="#890c22"/>
            </g>
            <g id="Group_3924" data-name="Group 3924" transform="translate(36.725 14.464)">
              <path id="Path_3825" data-name="Path 3825" d="M306.616,378.36c-.058,0-.077-.3-.238-.8a3.422,3.422,0,0,0-1.259-1.716,3.186,3.186,0,0,0-2.969-.387,3.1,3.1,0,0,0,0,5.805,3.186,3.186,0,0,0,2.969-.385,3.419,3.419,0,0,0,1.259-1.717c.162-.5.18-.8.238-.8.038,0,.116.307.026.867a3.394,3.394,0,0,1-1.223,2.043,3.642,3.642,0,0,1-3.49.6,3.719,3.719,0,0,1,0-7.02,3.642,3.642,0,0,1,3.49.6,3.4,3.4,0,0,1,1.223,2.045C306.732,378.054,306.654,378.363,306.616,378.36Z" transform="translate(-299.439 -374.645)" fill="#890c22"/>
            </g>
          </g>
          <g id="Group_3928" data-name="Group 3928" transform="translate(8.991 46.559)">
            <g id="Group_3926" data-name="Group 3926">
              <path id="Path_3826" data-name="Path 3826" d="M352.794,428.853s-.017-.229-.027-.652c-.005-.451-.015-1.068-.027-1.86-.015-1.657-.035-4.039-.063-7.091-.031-6.15-.078-14.991-.135-25.9l.252.252-80.261.1c-.316.314.42-.427.346-.346V398q0,2.315,0,4.6,0,4.578,0,9.037c0,5.94-.008,11.7-.012,17.213l-.334-.334,57.527.159,16.688.092,4.477.042,1.165.022a3.45,3.45,0,0,1,.409.02,2.324,2.324,0,0,1-.368.02l-1.126.02-4.408.042-16.612.093-57.752.159H272.2v-.334c0-5.514-.009-11.273-.013-17.213q0-4.455,0-9.037v-9.249c-.078.071.667-.668.356-.354l80.261.1h.253v.252c-.057,10.974-.1,19.866-.136,26.054-.027,3.028-.047,5.392-.062,7.035-.012.773-.022,1.374-.028,1.814A5.029,5.029,0,0,1,352.794,428.853Z" transform="translate(-272.172 -392.921)" fill="#890c22"/>
            </g>
            <g id="Group_3927" data-name="Group 3927" transform="translate(36.725 14.465)">
              <path id="Path_3827" data-name="Path 3827" d="M306.616,407.376c-.058,0-.077-.3-.238-.8a3.416,3.416,0,0,0-1.259-1.716,3.182,3.182,0,0,0-2.969-.387,3.1,3.1,0,0,0,0,5.8,3.186,3.186,0,0,0,2.969-.387,3.422,3.422,0,0,0,1.259-1.716c.162-.5.18-.8.238-.8.038,0,.116.306.026.866a3.4,3.4,0,0,1-1.223,2.044,3.642,3.642,0,0,1-3.49.6,3.719,3.719,0,0,1,0-7.02,3.643,3.643,0,0,1,3.49.6,3.394,3.394,0,0,1,1.223,2.043C306.732,407.07,306.654,407.379,306.616,407.376Z" transform="translate(-299.439 -403.661)" fill="#890c22"/>
            </g>
          </g>
          <g id="Group_3931" data-name="Group 3931" transform="translate(8.991 85.639)">
            <g id="Group_3929" data-name="Group 3929">
              <path id="Path_3828" data-name="Path 3828" d="M352.794,457.868s-.017-.229-.027-.651c-.005-.451-.015-1.069-.027-1.86-.015-1.657-.035-4.039-.063-7.091-.031-6.151-.078-14.992-.135-25.9l.252.252-80.261.1c-.316.312.42-.428.346-.348v4.645q0,2.315,0,4.6,0,4.578,0,9.036c0,5.94-.008,11.7-.012,17.213l-.334-.333,57.527.158,16.688.093,4.477.042,1.165.02a3.426,3.426,0,0,1,.409.02,2.413,2.413,0,0,1-.368.022c-.282,0-.653.011-1.126.02l-4.408.042-16.612.092-57.752.159H272.2v-.335c0-5.514-.009-11.273-.013-17.213q0-4.455,0-9.036v-9.25c-.078.071.667-.668.356-.354l80.261.1h.253v.253c-.057,10.973-.1,19.866-.136,26.052-.027,3.028-.047,5.393-.062,7.036-.012.772-.022,1.374-.028,1.814A4.964,4.964,0,0,1,352.794,457.868Z" transform="translate(-272.172 -421.936)" fill="#890c22"/>
            </g>
            <g id="Group_3930" data-name="Group 3930" transform="translate(36.725 14.465)">
              <path id="Path_3829" data-name="Path 3829" d="M306.616,436.391c-.058,0-.077-.3-.238-.8a3.422,3.422,0,0,0-1.259-1.716,3.19,3.19,0,0,0-2.969-.387,3.1,3.1,0,0,0,0,5.8,3.182,3.182,0,0,0,2.969-.387,3.411,3.411,0,0,0,1.259-1.716c.162-.5.18-.8.238-.8.038,0,.116.307.026.867a3.391,3.391,0,0,1-1.223,2.043,3.643,3.643,0,0,1-3.49.6,3.719,3.719,0,0,1,0-7.02,3.643,3.643,0,0,1,3.49.6,3.4,3.4,0,0,1,1.223,2.045C306.732,436.085,306.654,436.394,306.616,436.391Z" transform="translate(-299.439 -432.676)" fill="#890c22"/>
            </g>
          </g>
        </g>
        <rect id="Rectangle_1885" data-name="Rectangle 1885" width="184.238" height="127.802" transform="translate(7.064 8.914)" fill="#890c22"/>
        <rect id="Rectangle_1886" data-name="Rectangle 1886" width="526.293" height="12.145" fill="#890c22"/>
        <rect id="Rectangle_1887" data-name="Rectangle 1887" width="16.319" height="124.571" transform="translate(7.064 12.145)" fill="#a20122"/>
      </g>
    </g>
    <g id="Character" transform="translate(304.738 622.253)">
      <g id="Group_3939" data-name="Group 3939">
        <g id="Group_3937" data-name="Group 3937">
          <rect id="Rectangle_1888" data-name="Rectangle 1888" width="12.094" height="44.271" transform="translate(101.483 151.949)" fill="#a20122"/>
          <g id="Group_3934" data-name="Group 3934">
            <path id="Path_3830" data-name="Path 3830" d="M88.359,317.9V424.575a25.33,25.33,0,0,0,25.33,25.332h71.034v-132a11.29,11.29,0,0,0-11.289-11.291H99.648A11.29,11.29,0,0,0,88.359,317.9Z" transform="translate(-88.359 -306.611)" fill="#a20122"/>
            <path id="Path_3831" data-name="Path 3831" d="M275.438,424.264H102.454a18.776,18.776,0,0,1,18.777-18.777H256.662a18.776,18.776,0,0,1,18.777,18.777Z" transform="translate(-83.47 -272.315)" fill="#a20122"/>
          </g>
          <g id="Group_3935" data-name="Group 3935" transform="translate(23.689 130.682)">
            <path id="Path_3832" data-name="Path 3832" d="M178.622,403.638a9.585,9.585,0,0,1-.269,3.137,12.732,12.732,0,0,1-10.1,9.564,17.569,17.569,0,0,1-3.331.228l-3.491.019-15.543.043-28.241-.073-8.558-.1-2.327-.063a3.48,3.48,0,0,1-.811-.07,3.625,3.625,0,0,1,.811-.071l2.327-.067,8.558-.121,28.241-.132c5.51,0,10.755.007,15.543.011l3.491.011a17.223,17.223,0,0,0,3.23-.183,12.164,12.164,0,0,0,5.269-2.245,12.571,12.571,0,0,0,4.672-6.814A30.158,30.158,0,0,0,178.622,403.638Z" transform="translate(-105.947 -403.638)" fill="#890c22"/>
          </g>
          <g id="Group_3936" data-name="Group 3936" transform="translate(96.918 151.971)">
            <path id="Path_3833" data-name="Path 3833" d="M181.541,419.794c0,.194-4.752.35-10.612.35s-10.612-.156-10.612-.35,4.75-.35,10.612-.35S181.541,419.6,181.541,419.794Z" transform="translate(-160.317 -419.444)" fill="#890c22"/>
          </g>
        </g>
        <g id="Group_3938" data-name="Group 3938" transform="translate(82.712 76.975)">
          <path id="Path_3834" data-name="Path 3834" d="M237.831,431.015a4.843,4.843,0,0,1-.329-1.305c-.17-.863-.395-2.139-.672-3.785-.552-3.29-1.306-8.058-2.209-13.954-.482-2.935-.873-6.209-1.527-9.615q-.248-1.273-.508-2.59-.378-1.287-.766-2.614-.192-.663-.389-1.336l-.517-1.313c-.354-.878-.679-1.782-1.069-2.671a49.2,49.2,0,0,0-6.442-10.308,46.058,46.058,0,0,0-9.681-8.726,43.159,43.159,0,0,0-11.741-5.654A43.966,43.966,0,0,0,190,365.089c-7.841-.171-14.976-.124-20.93-.218-5.964-.063-10.79-.139-14.125-.222-1.667-.042-2.963-.086-3.841-.132a4.9,4.9,0,0,1-1.339-.141,4.9,4.9,0,0,1,1.339-.141c.878-.046,2.174-.09,3.841-.132,3.335-.084,8.161-.159,14.125-.222,5.973-.032,13.047-.185,20.972-.082a44.537,44.537,0,0,1,12.343,2.035,43.932,43.932,0,0,1,12.115,5.8,46.732,46.732,0,0,1,9.957,9.016,49.612,49.612,0,0,1,6.563,10.655c.393.917.719,1.852,1.073,2.758q.261.681.516,1.355.2.693.387,1.378.382,1.366.753,2.692.247,1.354.486,2.665c.617,3.491.941,6.717,1.363,9.677.777,5.914,1.382,10.7,1.768,14.017.193,1.657.331,2.946.411,3.821A4.943,4.943,0,0,1,237.831,431.015Z" transform="translate(-149.77 -363.762)" fill="#a20122"/>
        </g>
      </g>
    </g>
    <g id="Plant" transform="translate(250.861 624.83)">
      <g id="Group_3946" data-name="Group 3946">
        <g id="Group_3940" data-name="Group 3940" transform="translate(0.008)">
          <path id="Path_3835" data-name="Path 3835" d="M53.211,317.858s-2.171,6.109,2,10.523h8.728S63.131,318.517,53.211,317.858Z" transform="translate(-46.878 -305.287)" fill="#e8505b"/>
          <path id="Path_3836" data-name="Path 3836" d="M53.211,317.858s-2.171,6.109,2,10.523h8.728S63.131,318.517,53.211,317.858Z" transform="translate(-46.878 -305.287)" fill="#c2002f" opacity="0.4"/>
          <path id="Path_3837" data-name="Path 3837" d="M65.315,308.536c-.358-.428-7.789,11.2-3.615,23.083h8.184S73.085,317.8,65.315,308.536Z" transform="translate(-44.178 -308.525)" fill="#e8505b"/>
          <path id="Path_3838" data-name="Path 3838" d="M77.393,317.858a10.66,10.66,0,0,0-9.944,10.523h8.182S79.208,323.348,77.393,317.858Z" transform="translate(-41.744 -305.287)" fill="#e8505b"/>
          <path id="Path_3839" data-name="Path 3839" d="M56.026,325.326a18.366,18.366,0,0,0-7.358,18.222c2.1,12.089,14.892,17.346,14.892,17.346H77.753s14.433-6.345,14.083-19.486-8.951-15.885-8.951-15.885Z" transform="translate(-48.364 -302.697)" fill="#f02840"/>
        </g>
        <g id="Group_3941" data-name="Group 3941" transform="translate(0 33.914)">
          <path id="Path_3840" data-name="Path 3840" d="M91.789,337.035a7.129,7.129,0,0,0-1.174-1.461,6.348,6.348,0,0,0-4.736-1.356c-2.159.2-4.473,1.468-6.932,3.013a23.733,23.733,0,0,1-4.119,2.121,9.577,9.577,0,0,1-5,.5c-3.459-.583-6.221-2.442-8.808-3.688-2.564-1.3-5.13-2.063-7.262-1.748a6.9,6.9,0,0,0-4.424,2.245,8.328,8.328,0,0,0-.964,1.613c-.023-.005.007-.174.088-.5a4.286,4.286,0,0,1,.661-1.286,6.971,6.971,0,0,1,4.569-2.568c2.282-.4,4.991.373,7.617,1.658,2.645,1.245,5.382,3.037,8.636,3.577a8.958,8.958,0,0,0,4.659-.453,23.9,23.9,0,0,0,4.02-2.028c2.47-1.51,4.917-2.807,7.219-2.954a6.455,6.455,0,0,1,4.967,1.651,4.134,4.134,0,0,1,.842,1.178A1.26,1.26,0,0,1,91.789,337.035Z" transform="translate(-48.357 -333.704)" fill="#890c22"/>
        </g>
        <g id="Group_3942" data-name="Group 3942" transform="translate(0.668 37.081)">
          <path id="Path_3841" data-name="Path 3841" d="M91.811,339.387a7.169,7.169,0,0,0-1.156-1.455,6.227,6.227,0,0,0-4.683-1.364c-2.137.2-4.426,1.468-6.856,3.012a23.492,23.492,0,0,1-4.073,2.121,9.393,9.393,0,0,1-4.962.5c-3.429-.586-6.158-2.447-8.716-3.692-2.536-1.294-5.078-2.062-7.19-1.743a6.8,6.8,0,0,0-4.368,2.252,8.5,8.5,0,0,0-.948,1.606c-.023-.005.007-.174.085-.492a4.3,4.3,0,0,1,.646-1.28,6.866,6.866,0,0,1,4.512-2.577c2.261-.407,4.95.368,7.546,1.654,2.617,1.243,5.321,3.036,8.543,3.579a8.774,8.774,0,0,0,4.613-.455,23.579,23.579,0,0,0,3.975-2.027c2.441-1.508,4.862-2.807,7.146-2.954a6.345,6.345,0,0,1,4.915,1.659,4.082,4.082,0,0,1,.826,1.176C91.791,339.213,91.833,339.379,91.811,339.387Z" transform="translate(-48.853 -336.056)" fill="#890c22"/>
        </g>
        <g id="Group_3943" data-name="Group 3943" transform="translate(5.774 40.067)">
          <path id="Path_3842" data-name="Path 3842" d="M53.689,338.536c-.057-.077.373-.327.88.088a.971.971,0,0,1,.272,1.068,1.151,1.151,0,0,1-1.133.757,1.179,1.179,0,0,1-1.029-.881,1.044,1.044,0,0,1,.315-1.04c.485-.407.9-.224.87-.143,0,.1-.3.159-.5.475a.558.558,0,0,0-.065.521.582.582,0,0,0,.458.368.557.557,0,0,0,.486-.3.469.469,0,0,0-.038-.489C54.008,338.651,53.705,338.63,53.689,338.536Z" transform="translate(-52.644 -338.273)" fill="#890c22"/>
        </g>
        <g id="Group_3944" data-name="Group 3944" transform="translate(21.846 34.949)">
          <path id="Path_3843" data-name="Path 3843" d="M65.621,334.734c-.055-.075.373-.326.881.088a.972.972,0,0,1,.272,1.069,1.153,1.153,0,0,1-1.133.757,1.175,1.175,0,0,1-1.029-.882,1.041,1.041,0,0,1,.315-1.038c.485-.407.9-.224.869-.143,0,.1-.3.158-.5.474a.565.565,0,0,0-.063.523.581.581,0,0,0,.457.366.552.552,0,0,0,.486-.3.466.466,0,0,0-.038-.489C65.94,334.85,65.638,334.83,65.621,334.734Z" transform="translate(-64.577 -334.473)" fill="#890c22"/>
        </g>
        <g id="Group_3945" data-name="Group 3945" transform="translate(37.429 40.299)">
          <path id="Path_3844" data-name="Path 3844" d="M77.192,338.706c-.057-.075.372-.326.88.088a.972.972,0,0,1,.272,1.069,1.152,1.152,0,0,1-1.133.757,1.175,1.175,0,0,1-1.029-.882A1.041,1.041,0,0,1,76.5,338.7c.485-.407.9-.224.869-.143,0,.1-.3.158-.5.474a.561.561,0,0,0-.065.523.583.583,0,0,0,.458.366.552.552,0,0,0,.485-.3.466.466,0,0,0-.038-.489C77.51,338.822,77.208,338.8,77.192,338.706Z" transform="translate(-76.147 -338.445)" fill="#890c22"/>
        </g>
      </g>
    </g>
    <g id="Coffee" transform="translate(697.123 624.464)">
      <g id="Group_3947" data-name="Group 3947">
        <path id="Path_3845" data-name="Path 3845" d="M381.318,316.152l4.622,47.924h23.354l5.6-47.924Z" transform="translate(-379.128 -305.513)" fill="#a20122"/>
        <path id="Path_3846" data-name="Path 3846" d="M381.882,311.553s-1.946,1.946-2.19,6.325h37.949s.73-3.892-2.189-6.325Z" transform="translate(-379.692 -307.108)" fill="#890c22"/>
        <path id="Path_3847" data-name="Path 3847" d="M384.862,308.307l-1.284,4.742,28.645.215-1.891-5.012Z" transform="translate(-378.344 -308.253)" fill="#890c22"/>
        <path id="Path_3848" data-name="Path 3848" d="M380.962,325.059c0,.444,2.779,24.12,2.779,24.12h28.552l2.719-24.12Z" transform="translate(-379.252 -302.423)" fill="#e8505b"/>
      </g>
    </g>
  </g>
</svg>
