<svg xmlns="http://www.w3.org/2000/svg" width="61.27" height="53.019" viewBox="0 0 61.27 53.019">
  <g id="first-aid-kit" transform="translate(0 -26.181)">
    <g id="Group_2" data-name="Group 2" transform="translate(18.028 43.838)">
      <g id="Group_1" data-name="Group 1">
        <path id="Path_1" data-name="Path 1" d="M137.735,145.251h-5.144v-5.144a1.878,1.878,0,0,0-1.866-1.891H123.3a1.878,1.878,0,0,0-1.878,1.878v5.144h-5.131A1.878,1.878,0,0,0,114.4,147.1v7.425a1.878,1.878,0,0,0,1.878,1.878h5.144v5.131a1.878,1.878,0,0,0,1.866,1.891H130.7a1.878,1.878,0,0,0,1.878-1.878h0V156.4h5.144a1.879,1.879,0,0,0,1.891-1.866v-7.413A1.878,1.878,0,0,0,137.735,145.251Zm-.643,8.636h-5.761a1.261,1.261,0,0,0-1.261,1.261v5.761h-6.127v-5.761a1.261,1.261,0,0,0-1.261-1.261h-5.761v-6.114h5.761a1.261,1.261,0,0,0,1.261-1.261v-5.774h6.114V146.5a1.261,1.261,0,0,0,1.261,1.261h5.774Z" transform="translate(-114.4 -138.216)" fill="#efc20d"/>
      </g>
    </g>
    <g id="Group_4" data-name="Group 4" transform="translate(0 26.184)">
      <g id="Group_3" data-name="Group 3">
        <path id="Path_2" data-name="Path 2" d="M52.57,34.409H42.182V29.971a3.669,3.669,0,0,0-3.548-3.785H22.944a3.669,3.669,0,0,0-3.855,3.473,2.987,2.987,0,0,0,0,.309V34.38H8.7c-4.009,0-8.7,2.282-8.7,8.7V70.5c0,6.417,4.69,8.7,8.7,8.7H52.57c4.009,0,8.7-2.282,8.7-8.7V43.107C61.268,36.69,56.591,34.409,52.57,34.409ZM21.608,29.971a1.182,1.182,0,0,1,1.349-1.349H38.324c1.349,0,1.349.971,1.349,1.349v4.412H21.608ZM58.747,70.5c0,5.572-4.311,6.177-6.177,6.177H8.7c-1.853,0-6.177-.605-6.177-6.177V43.107c0-5.572,4.311-6.177,6.177-6.177H52.57c1.853,0,6.177.6,6.177,6.177Z" transform="translate(0 -26.184)" fill="#efc20d"/>
      </g>
    </g>
  </g>
</svg>
